<svg xmlns="http://www.w3.org/2000/svg" viewBox="0 0 1024 1024" width="1024" height="1024" role="img" aria-label="VANTRUFREE VTF monogram">
  <title>VANTRUFREE VTF Monogram</title>
  <g fill="#fff8e8" fill-rule="evenodd">
  <path d="M 555.0 440.0 L 738.0 441.0 L 752.0 446.0 L 761.0 454.0 L 769.0 474.0 L 821.0 408.0 L 629.0 407.0 L 686.0 291.0 L 820.0 289.0 L 843.0 301.0 L 859.0 327.0 L 886.0 286.0 L 927.0 244.0 L 583.0 243.0 L 614.0 271.0 L 621.0 290.0 Z"/>
  <path d="M 96.0 242.0 L 151.0 280.0 L 182.0 314.0 L 464.0 810.0 L 497.0 877.0 L 537.0 783.0 L 681.0 495.0 L 683.0 464.0 L 622.0 464.0 L 624.0 490.0 L 508.0 723.0 L 507.0 761.0 L 240.0 278.0 L 242.0 262.0 L 265.0 242.0 Z"/>
  <path d="M 496.0 695.0 L 543.0 606.0 L 546.0 175.0 L 711.0 174.0 L 751.0 212.0 L 835.0 134.0 L 188.0 134.0 L 272.0 212.0 L 312.0 174.0 L 478.0 175.0 L 477.0 609.0 L 412.0 486.0 L 457.0 393.0 L 416.0 283.0 L 421.0 267.0 L 447.0 244.0 L 327.0 244.0 L 376.0 287.0 L 430.0 396.0 L 386.0 494.0 Z"/>
  </g>
</svg>
